<?xml version="1.0" encoding="UTF-8" standalone="no"?>
<!DOCTYPE svg PUBLIC "-//W3C//DTD SVG 1.1//EN" "http://www.w3.org/Graphics/SVG/1.1/DTD/svg11.dtd">
<svg width="100%" height="100%" viewBox="0 0 800 600" version="1.1" xmlns="http://www.w3.org/2000/svg" xmlns:xlink="http://www.w3.org/1999/xlink" xml:space="preserve" xmlns:serif="http://www.serif.com/" style="fill-rule:evenodd;clip-rule:evenodd;stroke-linejoin:round;stroke-miterlimit:2;">
    <g id="レイヤー6">
        <g>
            <g transform="matrix(1,-1.99493e-16,1.99493e-16,1,-23.7779,104.651)">
                <path d="M523.497,230.079C523.497,229.832 523.498,229.585 523.499,229.339C524.014,88.4 676.229,56.69 724.236,48.217C724.743,48.123 725.239,48.43 725.381,48.926C725.522,49.422 725.263,49.944 724.782,50.132C681.312,65.084 550.965,104.995 552.951,229.791" style="fill:rgb(168,171,174);"/>
            </g>
            <g transform="matrix(111.361,0,0,111.361,546.984,441.192)">
                <path d="M0.277,-0.608L0.455,-0.608L0.455,-0.678L0.277,-0.677L0.277,-0.608ZM0.277,-0.495L0.455,-0.495L0.455,-0.556L0.277,-0.556L0.277,-0.495ZM0.455,-0.443L0.277,-0.443L0.277,-0.364L0.455,-0.364L0.455,-0.443ZM0.884,-0.495L0.884,-0.443L0.594,-0.443L0.594,-0.364L0.925,-0.364L0.925,-0.308L0.565,-0.308L0.565,-0.249L0.951,-0.249L0.951,-0.191L0.611,-0.191C0.66,-0.162 0.722,-0.135 0.797,-0.111C0.869,-0.088 0.931,-0.073 0.984,-0.068L0.913,0.043C0.79,0.02 0.673,-0.04 0.56,-0.137L0.56,0.059L0.43,0.059L0.43,-0.107C0.307,-0.03 0.183,0.021 0.058,0.044L0.032,-0.018C0.079,-0.029 0.136,-0.052 0.201,-0.085C0.266,-0.118 0.322,-0.154 0.37,-0.191L0.05,-0.191L0.05,-0.249L0.426,-0.249L0.426,-0.307L0.14,-0.307L0.14,-0.564C0.114,-0.544 0.091,-0.528 0.07,-0.515L0.027,-0.568C0.123,-0.643 0.198,-0.735 0.253,-0.842L0.388,-0.81C0.373,-0.787 0.354,-0.761 0.331,-0.734L0.476,-0.734C0.493,-0.765 0.51,-0.799 0.526,-0.837L0.661,-0.817C0.645,-0.798 0.62,-0.77 0.586,-0.734L0.921,-0.734L0.921,-0.678L0.594,-0.678L0.594,-0.608L0.881,-0.608L0.881,-0.556L0.594,-0.556L0.594,-0.495L0.884,-0.495Z" style="fill:rgb(0,79,138);fill-rule:nonzero;"/>
            </g>
            <g transform="matrix(111.361,0,0,111.361,658.345,441.192)">
                <path d="M0.931,-0.316L0.931,-0.258L0.467,-0.258C0.426,-0.194 0.377,-0.13 0.32,-0.067C0.468,-0.071 0.59,-0.077 0.685,-0.085C0.648,-0.134 0.615,-0.174 0.585,-0.207L0.654,-0.246C0.697,-0.216 0.746,-0.176 0.801,-0.127C0.858,-0.074 0.899,-0.031 0.924,0.003L0.786,0.059C0.771,0.036 0.754,0.012 0.737,-0.013C0.516,0.018 0.304,0.039 0.1,0.049L0.08,-0.062C0.118,-0.062 0.161,-0.063 0.208,-0.064C0.246,-0.121 0.283,-0.185 0.318,-0.258L0.066,-0.258L0.066,-0.316L0.931,-0.316ZM0.267,-0.508L0.753,-0.508C0.645,-0.578 0.567,-0.652 0.519,-0.729C0.449,-0.638 0.365,-0.565 0.267,-0.508ZM0.771,-0.496L0.771,-0.449L0.229,-0.449L0.229,-0.487C0.178,-0.461 0.121,-0.437 0.057,-0.416L0.025,-0.476C0.098,-0.502 0.173,-0.549 0.251,-0.617C0.328,-0.684 0.385,-0.753 0.423,-0.823L0.554,-0.823C0.59,-0.766 0.651,-0.711 0.736,-0.657C0.816,-0.606 0.9,-0.568 0.989,-0.541L0.906,-0.427C0.865,-0.443 0.82,-0.466 0.771,-0.496Z" style="fill:rgb(0,79,138);fill-rule:nonzero;"/>
            </g>
            <g transform="matrix(37.7853,0,0,37.7853,38.4421,389.506)">
                <path d="M0.11,-0.097L0.11,-0.603C0.11,-0.67 0.144,-0.704 0.212,-0.704L0.785,-0.704C0.856,-0.704 0.891,-0.67 0.891,-0.603L0.891,-0.093C0.891,-0.022 0.853,0.014 0.778,0.014L0.232,0.014C0.151,0.014 0.11,-0.023 0.11,-0.097ZM0.704,-0.641L0.291,-0.641C0.266,-0.641 0.253,-0.63 0.253,-0.609L0.253,-0.092C0.253,-0.067 0.267,-0.054 0.296,-0.054L0.703,-0.054C0.731,-0.054 0.745,-0.065 0.745,-0.087L0.745,-0.603C0.745,-0.628 0.731,-0.641 0.704,-0.641Z" style="fill:rgb(168,171,174);fill-rule:nonzero;"/>
            </g>
            <g transform="matrix(37.7853,0,0,37.7853,76.2274,389.506)">
                <path d="M0.069,-0.305L0.037,-0.364C0.082,-0.39 0.118,-0.42 0.147,-0.453C0.166,-0.476 0.187,-0.509 0.21,-0.552C0.245,-0.617 0.264,-0.696 0.268,-0.789L0.419,-0.79C0.418,-0.758 0.413,-0.723 0.406,-0.686C0.402,-0.667 0.396,-0.644 0.387,-0.619L0.965,-0.62L0.965,-0.555L0.734,-0.555C0.736,-0.397 0.718,-0.277 0.68,-0.195C0.643,-0.116 0.583,-0.058 0.502,-0.021C0.426,0.014 0.315,0.036 0.168,0.047L0.157,-0.023C0.286,-0.041 0.38,-0.07 0.437,-0.111C0.475,-0.138 0.504,-0.167 0.525,-0.199C0.545,-0.23 0.56,-0.272 0.57,-0.323C0.583,-0.392 0.588,-0.469 0.584,-0.555L0.361,-0.555C0.333,-0.494 0.296,-0.444 0.251,-0.405C0.206,-0.366 0.145,-0.333 0.069,-0.305Z" style="fill:rgb(168,171,174);fill-rule:nonzero;"/>
            </g>
            <g transform="matrix(37.7853,0,0,37.7853,114.013,389.506)">
                <path d="M0.441,-0.315C0.431,-0.436 0.404,-0.554 0.361,-0.668L0.425,-0.683C0.495,-0.586 0.546,-0.473 0.577,-0.343L0.441,-0.315ZM0.837,-0.495C0.826,-0.352 0.799,-0.248 0.758,-0.182C0.71,-0.107 0.646,-0.052 0.566,-0.017C0.485,0.018 0.372,0.04 0.226,0.051L0.217,-0.016C0.318,-0.025 0.399,-0.041 0.458,-0.064C0.517,-0.087 0.566,-0.12 0.604,-0.164C0.621,-0.183 0.639,-0.211 0.659,-0.247C0.685,-0.293 0.702,-0.364 0.71,-0.461C0.714,-0.508 0.716,-0.582 0.716,-0.684L0.841,-0.685C0.844,-0.638 0.843,-0.574 0.837,-0.495ZM0.199,-0.283C0.175,-0.438 0.147,-0.555 0.115,-0.635L0.179,-0.65C0.25,-0.552 0.302,-0.44 0.335,-0.314L0.199,-0.283Z" style="fill:rgb(168,171,174);fill-rule:nonzero;"/>
            </g>
            <g transform="matrix(37.7853,0,0,37.7853,151.798,389.506)">
                <path d="M0.421,0.045L0.281,0.045L0.281,-0.791L0.421,-0.791L0.421,-0.534C0.512,-0.517 0.607,-0.492 0.705,-0.457C0.798,-0.424 0.874,-0.391 0.932,-0.358C0.903,-0.319 0.873,-0.28 0.843,-0.241C0.75,-0.316 0.61,-0.387 0.421,-0.454L0.421,0.045Z" style="fill:rgb(168,171,174);fill-rule:nonzero;"/>
            </g>
            <g transform="matrix(37.7853,0,0,37.7853,189.583,389.506)">
                <path d="M0.44,-0.353C0.417,-0.345 0.38,-0.334 0.327,-0.319L0.327,-0.035C0.327,0.026 0.287,0.057 0.208,0.057L0.09,0.057L0.074,-0.045L0.157,-0.045C0.18,-0.045 0.192,-0.055 0.192,-0.074L0.192,-0.284C0.126,-0.267 0.08,-0.257 0.053,-0.252L0.034,-0.352C0.078,-0.357 0.131,-0.364 0.192,-0.373L0.192,-0.572L0.06,-0.572L0.06,-0.63L0.192,-0.63L0.192,-0.812L0.327,-0.812L0.327,-0.63L0.425,-0.63L0.425,-0.572L0.327,-0.572L0.327,-0.395C0.378,-0.404 0.414,-0.412 0.435,-0.418L0.44,-0.353ZM0.972,-0.766L0.972,-0.706L0.834,-0.706L0.834,-0.051C0.834,-0.028 0.823,-0.007 0.8,0.011C0.777,0.029 0.749,0.038 0.718,0.038L0.551,0.038L0.532,-0.072L0.667,-0.072C0.674,-0.072 0.681,-0.075 0.688,-0.08C0.695,-0.085 0.698,-0.092 0.698,-0.099L0.698,-0.706L0.422,-0.706L0.422,-0.766L0.972,-0.766Z" style="fill:rgb(168,171,174);fill-rule:nonzero;"/>
            </g>
            <g transform="matrix(37.7853,0,0,37.7853,227.369,389.506)">
                <path d="M0.333,-0.394C0.368,-0.411 0.411,-0.426 0.462,-0.438C0.511,-0.449 0.555,-0.456 0.596,-0.457C0.682,-0.46 0.754,-0.444 0.812,-0.408C0.877,-0.367 0.91,-0.309 0.91,-0.234C0.91,-0.129 0.864,-0.056 0.773,-0.015C0.708,0.015 0.613,0.03 0.487,0.03C0.4,0.03 0.319,0.026 0.244,0.017L0.244,-0.059C0.339,-0.048 0.421,-0.043 0.49,-0.046C0.561,-0.049 0.623,-0.066 0.674,-0.096C0.735,-0.133 0.766,-0.181 0.765,-0.242C0.765,-0.295 0.745,-0.334 0.706,-0.36C0.671,-0.383 0.629,-0.393 0.578,-0.39C0.509,-0.386 0.448,-0.374 0.396,-0.354C0.337,-0.331 0.279,-0.295 0.224,-0.246C0.219,-0.241 0.213,-0.239 0.206,-0.239C0.191,-0.239 0.176,-0.246 0.161,-0.26C0.145,-0.274 0.137,-0.287 0.137,-0.3C0.137,-0.305 0.138,-0.309 0.141,-0.312C0.21,-0.399 0.256,-0.491 0.281,-0.587L0.059,-0.587L0.059,-0.651L0.294,-0.651C0.299,-0.682 0.305,-0.731 0.311,-0.8L0.452,-0.799C0.451,-0.785 0.446,-0.737 0.435,-0.656L0.937,-0.656L0.937,-0.591L0.42,-0.591C0.4,-0.51 0.371,-0.445 0.333,-0.394Z" style="fill:rgb(168,171,174);fill-rule:nonzero;"/>
            </g>
            <g transform="matrix(37.7853,0,0,37.7853,265.154,389.506)">
                <path d="M0.552,-0.529L0.886,-0.529L0.886,-0.467L0.552,-0.467L0.552,-0.04L0.949,-0.04L0.949,0.022L0.053,0.022L0.053,-0.04L0.413,-0.04L0.413,-0.804L0.552,-0.804L0.552,-0.529Z" style="fill:rgb(168,171,174);fill-rule:nonzero;"/>
            </g>
            <g transform="matrix(37.7853,0,0,37.7853,302.939,389.506)">
                <path d="M0.45,0.038L0.425,-0.026C0.507,-0.05 0.565,-0.09 0.598,-0.145C0.625,-0.189 0.639,-0.248 0.639,-0.321L0.639,-0.516L0.334,-0.516L0.333,-0.578L0.633,-0.578L0.633,-0.768L0.76,-0.768L0.76,-0.583L0.91,-0.583L0.91,-0.52L0.778,-0.52L0.778,-0.316C0.778,-0.222 0.752,-0.145 0.701,-0.085C0.645,-0.019 0.561,0.022 0.45,0.038ZM0.13,-0.04C0.097,-0.115 0.081,-0.212 0.081,-0.33C0.081,-0.357 0.082,-0.388 0.083,-0.421C0.088,-0.525 0.105,-0.643 0.136,-0.774L0.273,-0.758C0.24,-0.629 0.22,-0.515 0.212,-0.415C0.21,-0.392 0.209,-0.368 0.209,-0.344C0.209,-0.277 0.216,-0.21 0.23,-0.145C0.233,-0.13 0.24,-0.122 0.25,-0.122C0.256,-0.122 0.262,-0.125 0.267,-0.131C0.287,-0.155 0.309,-0.2 0.333,-0.265L0.393,-0.244C0.374,-0.16 0.346,-0.087 0.307,-0.026C0.286,0.007 0.257,0.023 0.22,0.023C0.179,0.023 0.149,0.002 0.13,-0.04ZM0.921,-0.651C0.915,-0.7 0.9,-0.761 0.876,-0.833L0.924,-0.837C0.959,-0.782 0.982,-0.723 0.994,-0.66L0.921,-0.651ZM0.808,-0.638C0.802,-0.687 0.787,-0.748 0.763,-0.82L0.811,-0.824C0.846,-0.769 0.869,-0.71 0.881,-0.647L0.808,-0.638Z" style="fill:rgb(168,171,174);fill-rule:nonzero;"/>
            </g>
            <g transform="matrix(37.7853,0,0,37.7853,340.724,389.506)">
                <path d="M0.531,-0.151L0.531,-0.324C0.468,-0.295 0.423,-0.268 0.397,-0.245C0.364,-0.216 0.349,-0.184 0.351,-0.147C0.354,-0.101 0.402,-0.078 0.495,-0.077C0.647,-0.075 0.782,-0.079 0.9,-0.089L0.902,0.017C0.837,0.024 0.726,0.027 0.571,0.027C0.47,0.027 0.396,0.019 0.348,0.004C0.269,-0.021 0.229,-0.07 0.23,-0.142C0.231,-0.241 0.328,-0.33 0.523,-0.411C0.514,-0.448 0.498,-0.466 0.473,-0.467C0.419,-0.469 0.359,-0.445 0.293,-0.396C0.268,-0.379 0.213,-0.329 0.127,-0.247L0.047,-0.323C0.154,-0.41 0.237,-0.512 0.298,-0.627L0.079,-0.627L0.079,-0.689L0.327,-0.689C0.344,-0.73 0.358,-0.77 0.367,-0.811L0.509,-0.803C0.501,-0.765 0.49,-0.729 0.476,-0.694L0.847,-0.696L0.847,-0.633L0.448,-0.631C0.431,-0.599 0.406,-0.558 0.372,-0.508C0.374,-0.505 0.379,-0.505 0.386,-0.506C0.411,-0.522 0.451,-0.53 0.504,-0.53C0.57,-0.53 0.615,-0.505 0.64,-0.454C0.674,-0.466 0.757,-0.493 0.888,-0.534L0.919,-0.451C0.862,-0.436 0.776,-0.411 0.662,-0.376C0.665,-0.352 0.667,-0.323 0.667,-0.289L0.667,-0.151L0.531,-0.151Z" style="fill:rgb(168,171,174);fill-rule:nonzero;"/>
            </g>
            <g transform="matrix(37.7853,0,0,37.7853,378.51,389.506)">
                <path d="M0.222,-0.308L0.295,-0.308L0.295,-0.388L0.222,-0.388L0.222,-0.308ZM0.295,-0.13L0.222,-0.13L0.222,-0.044L0.295,-0.044L0.295,-0.13ZM0.222,-0.181L0.295,-0.181L0.295,-0.257L0.222,-0.257L0.222,-0.181ZM0.93,-0.262L0.843,-0.262L0.843,-0.071C0.843,-0.06 0.848,-0.055 0.858,-0.055L0.872,-0.055C0.883,-0.055 0.889,-0.062 0.891,-0.075C0.895,-0.102 0.897,-0.136 0.897,-0.179L0.982,-0.168L0.982,-0.051C0.981,-0.022 0.975,-0 0.964,0.014C0.952,0.028 0.931,0.036 0.902,0.038C0.882,0.039 0.869,0.04 0.864,0.04C0.844,0.04 0.826,0.039 0.809,0.037C0.758,0.031 0.733,0.003 0.733,-0.047L0.733,-0.262L0.698,-0.262C0.688,-0.101 0.627,0.007 0.515,0.062L0.471,0.011L0.222,0.011L0.222,0.047L0.1,0.047L0.1,-0.353C0.085,-0.341 0.071,-0.33 0.058,-0.321L0.017,-0.372C0.075,-0.421 0.124,-0.481 0.163,-0.551L0.038,-0.551L0.038,-0.607L0.191,-0.607C0.206,-0.639 0.218,-0.672 0.229,-0.707L0.19,-0.707C0.155,-0.664 0.124,-0.632 0.096,-0.613L0.035,-0.648C0.081,-0.701 0.116,-0.761 0.141,-0.83L0.255,-0.813C0.249,-0.798 0.24,-0.78 0.227,-0.759L0.505,-0.759L0.505,-0.707L0.354,-0.707C0.347,-0.682 0.333,-0.649 0.313,-0.607L0.52,-0.607L0.52,-0.551L0.285,-0.551C0.266,-0.519 0.237,-0.483 0.198,-0.443L0.315,-0.443C0.334,-0.494 0.345,-0.526 0.348,-0.539L0.464,-0.523C0.455,-0.51 0.434,-0.484 0.401,-0.443L0.516,-0.443L0.516,-0.388L0.411,-0.388L0.411,-0.308L0.499,-0.308L0.499,-0.257L0.411,-0.257L0.411,-0.181L0.499,-0.181L0.499,-0.13L0.411,-0.13L0.411,-0.044L0.504,-0.044L0.504,-0.019C0.556,-0.071 0.583,-0.152 0.586,-0.262L0.535,-0.262L0.535,-0.796L0.93,-0.796L0.93,-0.262ZM0.806,-0.633L0.806,-0.74L0.658,-0.74L0.658,-0.633L0.806,-0.633ZM0.658,-0.482L0.806,-0.482L0.806,-0.583L0.658,-0.583L0.658,-0.482ZM0.806,-0.433L0.658,-0.433L0.658,-0.318L0.806,-0.318L0.806,-0.433Z" style="fill:rgb(168,171,174);fill-rule:nonzero;"/>
            </g>
            <g transform="matrix(37.7853,0,0,37.7853,416.295,389.506)">
                <path d="M0.569,-0.053C0.562,-0.102 0.544,-0.141 0.514,-0.17C0.487,-0.195 0.457,-0.207 0.424,-0.206C0.355,-0.204 0.322,-0.177 0.325,-0.125C0.327,-0.099 0.344,-0.078 0.377,-0.063C0.404,-0.05 0.434,-0.044 0.465,-0.045C0.512,-0.046 0.546,-0.048 0.569,-0.053ZM0.928,-0.242C0.926,-0.116 0.861,-0.034 0.733,0.004C0.65,0.029 0.558,0.041 0.457,0.039C0.396,0.038 0.346,0.027 0.305,0.006C0.253,-0.021 0.226,-0.062 0.224,-0.116C0.223,-0.161 0.242,-0.199 0.281,-0.23C0.32,-0.26 0.372,-0.274 0.437,-0.271C0.568,-0.265 0.646,-0.197 0.671,-0.067C0.748,-0.094 0.786,-0.159 0.786,-0.26C0.786,-0.31 0.768,-0.35 0.731,-0.38C0.69,-0.414 0.629,-0.431 0.55,-0.43C0.467,-0.429 0.384,-0.407 0.301,-0.364C0.282,-0.354 0.254,-0.335 0.217,-0.306C0.174,-0.272 0.143,-0.249 0.125,-0.237L0.063,-0.32C0.194,-0.412 0.387,-0.543 0.641,-0.713L0.172,-0.712L0.173,-0.776L0.768,-0.776C0.78,-0.776 0.79,-0.77 0.797,-0.756C0.804,-0.744 0.808,-0.729 0.808,-0.714C0.808,-0.696 0.803,-0.684 0.794,-0.678C0.76,-0.657 0.702,-0.625 0.621,-0.582C0.539,-0.539 0.484,-0.508 0.455,-0.49L0.459,-0.48C0.472,-0.484 0.494,-0.488 0.525,-0.491C0.552,-0.494 0.577,-0.495 0.602,-0.495C0.685,-0.495 0.754,-0.479 0.808,-0.448C0.845,-0.426 0.875,-0.396 0.897,-0.359C0.918,-0.322 0.929,-0.283 0.928,-0.242Z" style="fill:rgb(168,171,174);fill-rule:nonzero;"/>
            </g>
            <g transform="matrix(37.7853,0,0,37.7853,454.08,389.506)">
                <path d="M0.277,-0.608L0.455,-0.608L0.455,-0.678L0.277,-0.677L0.277,-0.608ZM0.277,-0.495L0.455,-0.495L0.455,-0.556L0.277,-0.556L0.277,-0.495ZM0.455,-0.443L0.277,-0.443L0.277,-0.364L0.455,-0.364L0.455,-0.443ZM0.884,-0.495L0.884,-0.443L0.594,-0.443L0.594,-0.364L0.925,-0.364L0.925,-0.308L0.565,-0.308L0.565,-0.249L0.951,-0.249L0.951,-0.191L0.611,-0.191C0.66,-0.162 0.722,-0.135 0.797,-0.111C0.869,-0.088 0.931,-0.073 0.984,-0.068L0.913,0.043C0.79,0.02 0.673,-0.04 0.56,-0.137L0.56,0.059L0.43,0.059L0.43,-0.107C0.307,-0.03 0.183,0.021 0.058,0.044L0.032,-0.018C0.079,-0.029 0.136,-0.052 0.201,-0.085C0.266,-0.118 0.322,-0.154 0.37,-0.191L0.05,-0.191L0.05,-0.249L0.426,-0.249L0.426,-0.307L0.14,-0.307L0.14,-0.564C0.114,-0.544 0.091,-0.528 0.07,-0.515L0.027,-0.568C0.123,-0.643 0.198,-0.735 0.253,-0.842L0.388,-0.81C0.373,-0.787 0.354,-0.761 0.331,-0.734L0.476,-0.734C0.493,-0.765 0.51,-0.799 0.526,-0.837L0.661,-0.817C0.645,-0.798 0.62,-0.77 0.586,-0.734L0.921,-0.734L0.921,-0.678L0.594,-0.678L0.594,-0.608L0.881,-0.608L0.881,-0.556L0.594,-0.556L0.594,-0.495L0.884,-0.495Z" style="fill:rgb(168,171,174);fill-rule:nonzero;"/>
            </g>
            <g transform="matrix(37.7853,0,0,37.7853,491.866,389.506)">
                <path d="M0.931,-0.316L0.931,-0.258L0.467,-0.258C0.426,-0.194 0.377,-0.13 0.32,-0.067C0.468,-0.071 0.59,-0.077 0.685,-0.085C0.648,-0.134 0.615,-0.174 0.585,-0.207L0.654,-0.246C0.697,-0.216 0.746,-0.176 0.801,-0.127C0.858,-0.074 0.899,-0.031 0.924,0.003L0.786,0.059C0.771,0.036 0.754,0.012 0.737,-0.013C0.516,0.018 0.304,0.039 0.1,0.049L0.08,-0.062C0.118,-0.062 0.161,-0.063 0.208,-0.064C0.246,-0.121 0.283,-0.185 0.318,-0.258L0.066,-0.258L0.066,-0.316L0.931,-0.316ZM0.267,-0.508L0.753,-0.508C0.645,-0.578 0.567,-0.652 0.519,-0.729C0.449,-0.638 0.365,-0.565 0.267,-0.508ZM0.771,-0.496L0.771,-0.449L0.229,-0.449L0.229,-0.487C0.178,-0.461 0.121,-0.437 0.057,-0.416L0.025,-0.476C0.098,-0.502 0.173,-0.549 0.251,-0.617C0.328,-0.684 0.385,-0.753 0.423,-0.823L0.554,-0.823C0.59,-0.766 0.651,-0.711 0.736,-0.657C0.816,-0.606 0.9,-0.568 0.989,-0.541L0.906,-0.427C0.865,-0.443 0.82,-0.466 0.771,-0.496Z" style="fill:rgb(168,171,174);fill-rule:nonzero;"/>
            </g>
            <g transform="matrix(48.3886,0,0,48.3886,39.7882,436.335)">
                <path d="M0.204,-0L0.009,-0.65L0.155,-0.65L0.309,-0.101L0.312,-0.101L0.479,-0.65L0.566,-0.65L0.357,-0L0.204,-0Z" style="fill:rgb(168,171,174);fill-rule:nonzero;"/>
            </g>
            <g transform="matrix(48.3886,0,0,48.3886,67.6601,436.335)">
                <path d="M0.127,-0.575C0.107,-0.575 0.089,-0.582 0.074,-0.595C0.059,-0.61 0.051,-0.629 0.051,-0.652C0.051,-0.674 0.059,-0.693 0.074,-0.708C0.088,-0.721 0.106,-0.728 0.127,-0.728C0.148,-0.728 0.165,-0.722 0.178,-0.709C0.193,-0.694 0.2,-0.675 0.2,-0.652C0.2,-0.629 0.193,-0.609 0.178,-0.594C0.163,-0.581 0.146,-0.575 0.127,-0.575ZM0.06,-0L0.06,-0.5L0.193,-0.5L0.193,-0L0.06,-0Z" style="fill:rgb(168,171,174);fill-rule:nonzero;"/>
            </g>
            <g transform="matrix(48.3886,0,0,48.3886,79.9024,436.335)">
                <path d="M0.06,-0.5L0.154,-0.5L0.176,-0.416L0.18,-0.416C0.18,-0.42 0.183,-0.43 0.188,-0.446C0.193,-0.461 0.203,-0.476 0.218,-0.49C0.232,-0.504 0.251,-0.511 0.275,-0.511C0.288,-0.511 0.304,-0.509 0.321,-0.505C0.338,-0.501 0.349,-0.498 0.354,-0.497L0.342,-0.404C0.337,-0.405 0.325,-0.408 0.307,-0.412C0.288,-0.416 0.272,-0.418 0.259,-0.418C0.244,-0.418 0.231,-0.413 0.222,-0.405C0.212,-0.396 0.205,-0.386 0.2,-0.376C0.195,-0.366 0.193,-0.36 0.193,-0.358L0.193,-0L0.06,-0L0.06,-0.5Z" style="fill:rgb(168,171,174);fill-rule:nonzero;"/>
            </g>
            <g transform="matrix(48.3886,0,0,48.3886,97.0804,436.335)">
                <path d="M0.217,0.011C0.17,0.011 0.135,-0.001 0.112,-0.024C0.089,-0.047 0.078,-0.087 0.078,-0.142L0.078,-0.423L0.03,-0.423L0.03,-0.483L0.079,-0.497L0.143,-0.666L0.211,-0.666L0.211,-0.5L0.321,-0.5L0.321,-0.423L0.211,-0.423L0.211,-0.176C0.211,-0.145 0.213,-0.121 0.216,-0.105C0.219,-0.088 0.223,-0.077 0.23,-0.07C0.237,-0.064 0.246,-0.061 0.258,-0.061C0.271,-0.061 0.283,-0.062 0.294,-0.065C0.305,-0.068 0.31,-0.069 0.31,-0.07L0.318,-0.013C0.318,-0.012 0.314,-0.01 0.307,-0.006C0.3,-0.002 0.289,0.002 0.274,0.005C0.259,0.009 0.24,0.011 0.217,0.011Z" style="fill:rgb(168,171,174);fill-rule:nonzero;"/>
            </g>
            <g transform="matrix(48.3886,0,0,48.3886,114.162,436.335)">
                <path d="M0.21,0.011C0.159,0.011 0.12,-0.003 0.095,-0.031C0.069,-0.058 0.056,-0.101 0.056,-0.16L0.056,-0.5L0.189,-0.5L0.189,-0.188C0.189,-0.144 0.194,-0.114 0.205,-0.097C0.216,-0.08 0.233,-0.072 0.257,-0.072C0.273,-0.072 0.287,-0.075 0.3,-0.081C0.313,-0.086 0.323,-0.092 0.33,-0.098C0.337,-0.104 0.342,-0.108 0.344,-0.11L0.344,-0.5L0.477,-0.5L0.477,-0L0.37,-0L0.351,-0.044L0.349,-0.044C0.349,-0.043 0.344,-0.037 0.333,-0.028C0.322,-0.018 0.307,-0.009 0.286,-0.001C0.265,0.007 0.24,0.011 0.21,0.011Z" style="fill:rgb(168,171,174);fill-rule:nonzero;"/>
            </g>
            <g transform="matrix(48.3886,0,0,48.3886,140.195,436.335)">
                <path d="M0.181,0.011C0.134,0.011 0.097,-0.001 0.069,-0.024C0.041,-0.047 0.027,-0.079 0.027,-0.12C0.027,-0.179 0.055,-0.221 0.11,-0.248C0.165,-0.274 0.229,-0.29 0.302,-0.296L0.302,-0.325C0.302,-0.37 0.296,-0.402 0.283,-0.419C0.27,-0.436 0.249,-0.444 0.219,-0.444C0.205,-0.444 0.189,-0.441 0.172,-0.436C0.154,-0.431 0.139,-0.425 0.126,-0.419C0.113,-0.413 0.104,-0.409 0.1,-0.407L0.087,-0.471C0.091,-0.473 0.101,-0.477 0.116,-0.484C0.131,-0.49 0.15,-0.496 0.172,-0.502C0.196,-0.508 0.219,-0.511 0.242,-0.511C0.305,-0.511 0.353,-0.498 0.386,-0.471C0.419,-0.445 0.435,-0.4 0.435,-0.336L0.435,-0.109C0.435,-0.074 0.442,-0.056 0.456,-0.056C0.461,-0.056 0.468,-0.057 0.475,-0.059C0.482,-0.061 0.487,-0.062 0.49,-0.063L0.494,-0.011C0.491,-0.01 0.483,-0.007 0.47,-0.004C0.457,-0.001 0.443,0.003 0.427,0.006C0.41,0.009 0.396,0.011 0.383,0.011C0.364,0.011 0.349,0.006 0.338,-0.004C0.327,-0.013 0.32,-0.029 0.317,-0.051L0.312,-0.051C0.312,-0.049 0.308,-0.043 0.299,-0.033C0.29,-0.022 0.275,-0.012 0.256,-0.003C0.237,0.006 0.212,0.011 0.181,0.011ZM0.225,-0.056C0.241,-0.056 0.255,-0.06 0.267,-0.068C0.278,-0.076 0.287,-0.085 0.293,-0.095C0.299,-0.104 0.302,-0.11 0.302,-0.111L0.302,-0.243C0.257,-0.238 0.224,-0.228 0.201,-0.212C0.178,-0.195 0.166,-0.17 0.166,-0.137C0.166,-0.11 0.171,-0.09 0.182,-0.077C0.193,-0.063 0.207,-0.056 0.225,-0.056Z" style="fill:rgb(168,171,174);fill-rule:nonzero;"/>
            </g>
            <g transform="matrix(48.3886,0,0,48.3886,165.018,436.335)">
                <path d="M0.06,-0L0.06,-0.746L0.193,-0.754L0.193,-0L0.06,-0Z" style="fill:rgb(168,171,174);fill-rule:nonzero;"/>
            </g>
            <g transform="matrix(48.3886,0,0,48.3886,189.648,436.335)">
                <path d="M0.077,-0.65L0.277,-0.65C0.35,-0.65 0.408,-0.632 0.449,-0.597C0.49,-0.561 0.511,-0.511 0.511,-0.446C0.511,-0.404 0.501,-0.368 0.48,-0.337C0.459,-0.306 0.432,-0.281 0.399,-0.264L0.549,-0L0.39,-0L0.268,-0.236L0.215,-0.236L0.215,-0L0.077,-0L0.077,-0.65ZM0.266,-0.302C0.291,-0.302 0.31,-0.306 0.324,-0.315C0.337,-0.323 0.347,-0.337 0.353,-0.357C0.359,-0.377 0.362,-0.405 0.362,-0.44C0.362,-0.492 0.355,-0.529 0.34,-0.552C0.325,-0.574 0.299,-0.585 0.263,-0.585L0.215,-0.585L0.215,-0.302L0.266,-0.302Z" style="fill:rgb(168,171,174);fill-rule:nonzero;"/>
            </g>
            <g transform="matrix(48.3886,0,0,48.3886,217.616,436.335)">
                <path d="M0.262,0.011C0.187,0.011 0.13,-0.012 0.09,-0.057C0.049,-0.102 0.029,-0.167 0.029,-0.25C0.029,-0.333 0.049,-0.398 0.09,-0.443C0.13,-0.488 0.187,-0.511 0.262,-0.511C0.337,-0.511 0.395,-0.488 0.436,-0.443C0.476,-0.398 0.496,-0.333 0.496,-0.25C0.496,-0.167 0.475,-0.103 0.434,-0.058C0.392,-0.012 0.335,0.011 0.262,0.011ZM0.262,-0.055C0.284,-0.055 0.302,-0.061 0.315,-0.074C0.328,-0.087 0.337,-0.107 0.343,-0.135C0.349,-0.163 0.352,-0.201 0.352,-0.25C0.352,-0.299 0.349,-0.337 0.343,-0.365C0.337,-0.393 0.328,-0.413 0.315,-0.426C0.302,-0.438 0.285,-0.444 0.262,-0.444C0.239,-0.444 0.222,-0.438 0.209,-0.426C0.196,-0.413 0.187,-0.393 0.181,-0.365C0.175,-0.337 0.172,-0.299 0.172,-0.251C0.172,-0.202 0.175,-0.164 0.181,-0.136C0.187,-0.107 0.197,-0.087 0.21,-0.074C0.223,-0.061 0.24,-0.055 0.262,-0.055Z" style="fill:rgb(168,171,174);fill-rule:nonzero;"/>
            </g>
            <g transform="matrix(48.3886,0,0,48.3886,243.02,436.335)">
                <path d="M0.267,0.011C0.19,0.011 0.132,-0.011 0.091,-0.055C0.05,-0.099 0.029,-0.163 0.029,-0.247C0.029,-0.328 0.05,-0.393 0.093,-0.44C0.136,-0.487 0.195,-0.511 0.27,-0.511C0.291,-0.511 0.312,-0.508 0.334,-0.502C0.355,-0.497 0.373,-0.491 0.388,-0.485C0.403,-0.478 0.412,-0.474 0.416,-0.472L0.403,-0.408C0.4,-0.41 0.391,-0.414 0.378,-0.42C0.365,-0.425 0.349,-0.431 0.332,-0.436C0.315,-0.441 0.299,-0.444 0.285,-0.444C0.26,-0.444 0.239,-0.439 0.223,-0.428C0.207,-0.417 0.195,-0.398 0.186,-0.37C0.177,-0.341 0.173,-0.301 0.173,-0.249C0.173,-0.175 0.182,-0.124 0.201,-0.097C0.22,-0.07 0.246,-0.056 0.281,-0.056C0.304,-0.056 0.325,-0.061 0.342,-0.071C0.359,-0.082 0.372,-0.093 0.381,-0.105C0.39,-0.116 0.395,-0.123 0.395,-0.125L0.442,-0.095C0.442,-0.091 0.436,-0.08 0.424,-0.063C0.412,-0.045 0.393,-0.028 0.367,-0.013C0.341,0.003 0.308,0.011 0.267,0.011Z" style="fill:rgb(168,171,174);fill-rule:nonzero;"/>
            </g>
            <g transform="matrix(48.3886,0,0,48.3886,264.602,436.335)">
                <path d="M0.059,-0L0.059,-0.746L0.192,-0.754L0.192,-0.288L0.261,-0.335L0.367,-0.5L0.449,-0.5L0.319,-0.314L0.481,-0L0.329,-0L0.217,-0.234L0.192,-0.218L0.192,-0L0.059,-0Z" style="fill:rgb(168,171,174);fill-rule:nonzero;"/>
            </g>
            <g transform="matrix(48.3886,0,0,48.3886,288.361,436.335)">
                <path d="M0.263,0.011C0.189,0.011 0.132,-0.01 0.091,-0.051C0.05,-0.092 0.029,-0.155 0.029,-0.241C0.029,-0.328 0.049,-0.394 0.089,-0.441C0.129,-0.487 0.183,-0.51 0.251,-0.51C0.313,-0.51 0.361,-0.491 0.396,-0.452C0.43,-0.412 0.447,-0.357 0.447,-0.284C0.447,-0.267 0.446,-0.253 0.444,-0.242C0.441,-0.231 0.44,-0.224 0.439,-0.221L0.17,-0.221C0.171,-0.161 0.18,-0.118 0.197,-0.094C0.214,-0.069 0.241,-0.056 0.279,-0.056C0.302,-0.056 0.322,-0.061 0.339,-0.07C0.356,-0.08 0.37,-0.091 0.38,-0.102C0.39,-0.114 0.395,-0.121 0.395,-0.122L0.44,-0.087C0.44,-0.084 0.433,-0.075 0.42,-0.058C0.406,-0.041 0.386,-0.026 0.36,-0.011C0.333,0.004 0.301,0.011 0.263,0.011ZM0.323,-0.286L0.323,-0.309C0.323,-0.36 0.318,-0.395 0.307,-0.416C0.296,-0.436 0.278,-0.446 0.251,-0.446C0.232,-0.446 0.218,-0.441 0.206,-0.432C0.196,-0.423 0.187,-0.406 0.181,-0.384C0.175,-0.361 0.171,-0.328 0.17,-0.286L0.323,-0.286Z" style="fill:rgb(168,171,174);fill-rule:nonzero;"/>
            </g>
            <g transform="matrix(48.3886,0,0,48.3886,311.297,436.335)">
                <path d="M0.217,0.011C0.17,0.011 0.135,-0.001 0.112,-0.024C0.089,-0.047 0.078,-0.087 0.078,-0.142L0.078,-0.423L0.03,-0.423L0.03,-0.483L0.079,-0.497L0.143,-0.666L0.211,-0.666L0.211,-0.5L0.321,-0.5L0.321,-0.423L0.211,-0.423L0.211,-0.176C0.211,-0.145 0.213,-0.121 0.216,-0.105C0.219,-0.088 0.223,-0.077 0.23,-0.07C0.237,-0.064 0.246,-0.061 0.258,-0.061C0.271,-0.061 0.283,-0.062 0.294,-0.065C0.305,-0.068 0.31,-0.069 0.31,-0.07L0.318,-0.013C0.318,-0.012 0.314,-0.01 0.307,-0.006C0.3,-0.002 0.289,0.002 0.274,0.005C0.259,0.009 0.24,0.011 0.217,0.011Z" style="fill:rgb(168,171,174);fill-rule:nonzero;"/>
            </g>
            <g transform="matrix(48.3886,0,0,48.3886,340.717,436.335)">
                <path d="M0.182,-0L0.009,-0.65L0.156,-0.65L0.276,-0.158L0.278,-0.158L0.411,-0.65L0.522,-0.65L0.659,-0.161L0.662,-0.161L0.775,-0.65L0.863,-0.65L0.693,-0L0.575,-0L0.439,-0.48L0.437,-0.48L0.302,-0L0.182,-0Z" style="fill:rgb(168,171,174);fill-rule:nonzero;"/>
            </g>
            <g transform="matrix(48.3886,0,0,48.3886,381.509,436.335)">
                <path d="M0.181,0.011C0.134,0.011 0.097,-0.001 0.069,-0.024C0.041,-0.047 0.027,-0.079 0.027,-0.12C0.027,-0.179 0.055,-0.221 0.11,-0.248C0.165,-0.274 0.229,-0.29 0.302,-0.296L0.302,-0.325C0.302,-0.37 0.296,-0.402 0.283,-0.419C0.27,-0.436 0.249,-0.444 0.219,-0.444C0.205,-0.444 0.189,-0.441 0.172,-0.436C0.154,-0.431 0.139,-0.425 0.126,-0.419C0.113,-0.413 0.104,-0.409 0.1,-0.407L0.087,-0.471C0.091,-0.473 0.101,-0.477 0.116,-0.484C0.131,-0.49 0.15,-0.496 0.172,-0.502C0.196,-0.508 0.219,-0.511 0.242,-0.511C0.305,-0.511 0.353,-0.498 0.386,-0.471C0.419,-0.445 0.435,-0.4 0.435,-0.336L0.435,-0.109C0.435,-0.074 0.442,-0.056 0.456,-0.056C0.461,-0.056 0.468,-0.057 0.475,-0.059C0.482,-0.061 0.487,-0.062 0.49,-0.063L0.494,-0.011C0.491,-0.01 0.483,-0.007 0.47,-0.004C0.457,-0.001 0.443,0.003 0.427,0.006C0.41,0.009 0.396,0.011 0.383,0.011C0.364,0.011 0.349,0.006 0.338,-0.004C0.327,-0.013 0.32,-0.029 0.317,-0.051L0.312,-0.051C0.312,-0.049 0.308,-0.043 0.299,-0.033C0.29,-0.022 0.275,-0.012 0.256,-0.003C0.237,0.006 0.212,0.011 0.181,0.011ZM0.225,-0.056C0.241,-0.056 0.255,-0.06 0.267,-0.068C0.278,-0.076 0.287,-0.085 0.293,-0.095C0.299,-0.104 0.302,-0.11 0.302,-0.111L0.302,-0.243C0.257,-0.238 0.224,-0.228 0.201,-0.212C0.178,-0.195 0.166,-0.17 0.166,-0.137C0.166,-0.11 0.171,-0.09 0.182,-0.077C0.193,-0.063 0.207,-0.056 0.225,-0.056Z" style="fill:rgb(168,171,174);fill-rule:nonzero;"/>
            </g>
            <g transform="matrix(48.3886,0,0,48.3886,406.332,436.335)">
                <path d="M0.217,0.011C0.17,0.011 0.135,-0.001 0.112,-0.024C0.089,-0.047 0.078,-0.087 0.078,-0.142L0.078,-0.423L0.03,-0.423L0.03,-0.483L0.079,-0.497L0.143,-0.666L0.211,-0.666L0.211,-0.5L0.321,-0.5L0.321,-0.423L0.211,-0.423L0.211,-0.176C0.211,-0.145 0.213,-0.121 0.216,-0.105C0.219,-0.088 0.223,-0.077 0.23,-0.07C0.237,-0.064 0.246,-0.061 0.258,-0.061C0.271,-0.061 0.283,-0.062 0.294,-0.065C0.305,-0.068 0.31,-0.069 0.31,-0.07L0.318,-0.013C0.318,-0.012 0.314,-0.01 0.307,-0.006C0.3,-0.002 0.289,0.002 0.274,0.005C0.259,0.009 0.24,0.011 0.217,0.011Z" style="fill:rgb(168,171,174);fill-rule:nonzero;"/>
            </g>
            <g transform="matrix(48.3886,0,0,48.3886,423.414,436.335)">
                <path d="M0.267,0.011C0.19,0.011 0.132,-0.011 0.091,-0.055C0.05,-0.099 0.029,-0.163 0.029,-0.247C0.029,-0.328 0.05,-0.393 0.093,-0.44C0.136,-0.487 0.195,-0.511 0.27,-0.511C0.291,-0.511 0.312,-0.508 0.334,-0.502C0.355,-0.497 0.373,-0.491 0.388,-0.485C0.403,-0.478 0.412,-0.474 0.416,-0.472L0.403,-0.408C0.4,-0.41 0.391,-0.414 0.378,-0.42C0.365,-0.425 0.349,-0.431 0.332,-0.436C0.315,-0.441 0.299,-0.444 0.285,-0.444C0.26,-0.444 0.239,-0.439 0.223,-0.428C0.207,-0.417 0.195,-0.398 0.186,-0.37C0.177,-0.341 0.173,-0.301 0.173,-0.249C0.173,-0.175 0.182,-0.124 0.201,-0.097C0.22,-0.07 0.246,-0.056 0.281,-0.056C0.304,-0.056 0.325,-0.061 0.342,-0.071C0.359,-0.082 0.372,-0.093 0.381,-0.105C0.39,-0.116 0.395,-0.123 0.395,-0.125L0.442,-0.095C0.442,-0.091 0.436,-0.08 0.424,-0.063C0.412,-0.045 0.393,-0.028 0.367,-0.013C0.341,0.003 0.308,0.011 0.267,0.011Z" style="fill:rgb(168,171,174);fill-rule:nonzero;"/>
            </g>
            <g transform="matrix(48.3886,0,0,48.3886,444.995,436.335)">
                <path d="M0.06,-0.746L0.193,-0.754L0.193,-0.466L0.197,-0.466C0.197,-0.467 0.203,-0.472 0.214,-0.479C0.225,-0.486 0.24,-0.493 0.259,-0.5C0.278,-0.507 0.301,-0.51 0.327,-0.51C0.379,-0.51 0.418,-0.496 0.443,-0.469C0.468,-0.441 0.481,-0.398 0.481,-0.339L0.481,-0L0.349,-0L0.349,-0.328C0.349,-0.367 0.344,-0.393 0.334,-0.406C0.324,-0.42 0.306,-0.427 0.281,-0.427C0.264,-0.427 0.25,-0.424 0.236,-0.419C0.224,-0.414 0.213,-0.408 0.205,-0.402C0.197,-0.395 0.193,-0.392 0.193,-0.391L0.193,-0L0.06,-0L0.06,-0.746Z" style="fill:rgb(168,171,174);fill-rule:nonzero;"/>
            </g>
            <g transform="matrix(48.3886,0,0,48.3886,470.98,436.335)">
                <path d="M0.127,-0.575C0.107,-0.575 0.089,-0.582 0.074,-0.595C0.059,-0.61 0.051,-0.629 0.051,-0.652C0.051,-0.674 0.059,-0.693 0.074,-0.708C0.088,-0.721 0.106,-0.728 0.127,-0.728C0.148,-0.728 0.165,-0.722 0.178,-0.709C0.193,-0.694 0.2,-0.675 0.2,-0.652C0.2,-0.629 0.193,-0.609 0.178,-0.594C0.163,-0.581 0.146,-0.575 0.127,-0.575ZM0.06,-0L0.06,-0.5L0.193,-0.5L0.193,-0L0.06,-0Z" style="fill:rgb(168,171,174);fill-rule:nonzero;"/>
            </g>
            <g transform="matrix(48.3886,0,0,48.3886,483.222,436.335)">
                <path d="M0.06,-0.5L0.167,-0.5L0.184,-0.459L0.188,-0.459C0.188,-0.46 0.194,-0.465 0.204,-0.474C0.216,-0.483 0.231,-0.491 0.252,-0.499C0.273,-0.506 0.298,-0.51 0.329,-0.51C0.38,-0.51 0.419,-0.496 0.445,-0.469C0.47,-0.441 0.483,-0.398 0.483,-0.339L0.483,-0L0.35,-0L0.35,-0.312C0.35,-0.357 0.345,-0.387 0.336,-0.403C0.326,-0.419 0.308,-0.427 0.283,-0.427C0.266,-0.427 0.25,-0.424 0.237,-0.419C0.224,-0.414 0.213,-0.408 0.205,-0.402C0.197,-0.395 0.193,-0.392 0.193,-0.391L0.193,-0L0.06,-0L0.06,-0.5Z" style="fill:rgb(168,171,174);fill-rule:nonzero;"/>
            </g>
            <g transform="matrix(48.3886,0,0,48.3886,509.255,436.335)">
                <path d="M0.234,0.262C0.159,0.262 0.102,0.247 0.066,0.217C0.029,0.187 0.01,0.146 0.01,0.095C0.01,0.039 0.031,-0.002 0.073,-0.028C0.066,-0.044 0.062,-0.062 0.062,-0.082C0.062,-0.122 0.077,-0.155 0.106,-0.18C0.082,-0.195 0.063,-0.216 0.05,-0.241C0.036,-0.266 0.029,-0.296 0.029,-0.33C0.029,-0.39 0.048,-0.435 0.087,-0.465C0.126,-0.495 0.175,-0.51 0.235,-0.51C0.262,-0.51 0.287,-0.506 0.311,-0.499L0.446,-0.498L0.446,-0.439L0.398,-0.436C0.417,-0.408 0.426,-0.373 0.426,-0.33C0.426,-0.271 0.408,-0.225 0.374,-0.194C0.339,-0.163 0.291,-0.147 0.232,-0.147C0.209,-0.147 0.186,-0.15 0.163,-0.155C0.15,-0.145 0.144,-0.133 0.144,-0.118C0.144,-0.105 0.152,-0.095 0.167,-0.087C0.182,-0.081 0.209,-0.077 0.246,-0.077C0.319,-0.077 0.374,-0.064 0.409,-0.037C0.444,-0.01 0.462,0.029 0.462,0.081C0.462,0.14 0.443,0.184 0.405,0.215C0.366,0.246 0.309,0.262 0.234,0.262ZM0.229,-0.208C0.252,-0.208 0.269,-0.218 0.28,-0.237C0.291,-0.256 0.297,-0.288 0.297,-0.332C0.297,-0.376 0.291,-0.406 0.28,-0.422C0.269,-0.438 0.251,-0.446 0.228,-0.446C0.205,-0.446 0.187,-0.438 0.175,-0.422C0.163,-0.405 0.157,-0.375 0.157,-0.33C0.157,-0.287 0.163,-0.256 0.175,-0.236C0.188,-0.218 0.206,-0.208 0.229,-0.208ZM0.234,0.194C0.273,0.194 0.303,0.187 0.322,0.173C0.341,0.159 0.351,0.139 0.351,0.112C0.351,0.085 0.341,0.066 0.32,0.054C0.299,0.042 0.267,0.036 0.225,0.036C0.186,0.036 0.153,0.031 0.128,0.02C0.111,0.038 0.103,0.062 0.103,0.092C0.103,0.125 0.114,0.15 0.136,0.167C0.157,0.185 0.19,0.194 0.234,0.194Z" style="fill:rgb(168,171,174);fill-rule:nonzero;"/>
            </g>
            <g transform="matrix(1,0,0,1,2.40347,138.389)">
                <path d="M512.381,118.526C509.047,117.833 503.47,116.754 495.649,115.287L493.332,114.901C487.284,151.06 476.282,174.609 460.326,185.547C451.961,191.209 441.989,193.847 430.407,193.461C422.043,193.075 415.223,189.858 409.947,183.81C404.028,176.99 401.518,167.982 402.419,156.787C403.835,139.544 411.942,125.324 426.74,114.129C438.193,105.636 451.897,101.325 467.854,101.197L468.433,101.197C468.69,95.535 468.947,83.632 469.205,65.487C469.333,62.528 468.883,60.598 467.854,59.697C466.824,58.796 464.894,58.346 462.063,58.346L420.949,58.346L420.949,45.799L478.856,45.606C491.209,45.606 497.193,51.783 496.807,64.136C496.292,81.38 495.649,94.376 494.877,103.127C502.536,104.164 510.541,105.646 518.892,107.574C516.591,111.097 514.416,114.747 512.381,118.526ZM467.661,112.392L467.468,112.392C454.985,112.134 444.434,117.346 435.812,128.027C427.962,137.678 423.909,148.551 423.652,160.647C423.394,171.07 426.418,176.475 432.724,176.861C438.772,177.247 443.275,176.539 446.235,174.738C450.61,172.293 454.471,167.017 457.816,158.91C458.975,155.822 460.969,148.68 463.8,137.485C465.344,131.179 466.631,122.815 467.661,112.392ZM551.138,116.818L559.128,119.324L559.127,119.333L559.241,119.371C566.806,121.937 574.561,124.822 582.509,128.027C578.133,137.935 575.817,142.889 575.56,142.889C569.676,139.82 563.539,136.877 557.148,134.062L557.144,134.09L544.471,129C546.514,124.785 548.744,120.726 551.138,116.818Z" style="fill:rgb(0,79,138);"/>
            </g>
            <g transform="matrix(1,0,0,1,2.40347,138.389)">
                <path d="M637.384,44.255L735.189,44.255C737.505,44.255 739.371,45.51 740.786,48.019C742.202,50.528 742.91,53.263 742.91,56.222C742.91,59.697 742.009,62.013 740.207,63.171C733.645,67.16 722.481,73.337 706.718,81.701C690.955,90.066 680.306,95.985 674.773,99.459L675.545,101.39C678.119,100.617 682.365,99.91 688.284,99.266C693.432,98.752 698.386,98.494 703.147,98.494C719.232,98.494 732.486,101.518 742.91,107.566C750.116,111.813 755.81,117.539 759.992,124.745C764.174,131.951 766.201,139.479 766.072,147.329C765.686,171.649 753.14,187.477 728.433,194.812C712.348,199.702 694.59,201.954 675.159,201.568C663.449,201.31 653.669,199.187 645.82,195.198C635.783,189.922 630.571,182.073 630.185,171.649C629.928,162.899 633.595,155.597 641.187,149.742C648.779,143.887 658.816,141.216 671.299,141.731C693.495,142.745 707.799,152.934 714.211,172.3L695.555,177.642C693.77,170.977 690.639,165.505 686.161,161.226C681.014,156.336 675.223,154.02 668.789,154.278C655.406,154.664 649.037,159.875 649.68,169.912C650.066,174.931 653.412,178.92 659.717,181.88C664.993,184.325 670.655,185.483 676.703,185.354C676.862,185.352 677.02,185.349 677.176,185.347L677.142,185.362C687.619,185.206 708.23,184.055 716.465,181.107L716.466,181.108C731.264,175.832 738.663,163.414 738.663,143.854C738.663,134.203 735.124,126.482 728.047,120.692C720.069,114.129 708.423,110.912 693.11,111.041C677.025,111.169 661.004,115.416 645.048,123.78C641.316,125.71 635.911,129.442 628.834,134.975C620.469,141.538 614.55,145.978 611.076,148.294L599.108,132.273C624.459,114.515 661.647,89.229 710.675,56.415L620.148,56.608L620.199,53.361C625.949,50.064 631.706,47.038 637.384,44.255Z" style="fill:rgb(0,79,138);fill-rule:nonzero;"/>
            </g>
            <g transform="matrix(1,0,0,1,2.40347,138.389)">
                <path d="M342.598,94.432C342.358,121.245 338.879,141.901 332.159,156.401C324.953,171.714 313.5,182.909 297.801,189.987C283.132,196.678 261.642,201.053 233.332,203.112L231.209,189.601C256.173,186.126 274.188,180.464 285.255,172.615C292.59,167.467 298.22,161.838 302.144,155.725C306.069,149.613 308.997,141.602 310.927,131.694C313.106,120.473 314.086,108.053 313.866,94.432L342.598,94.432ZM313.63,86.932L313.629,86.913L270.585,86.913C265.181,98.752 258.103,108.403 249.353,115.866C240.603,123.33 228.893,129.764 214.223,135.168L208.046,123.78C216.668,118.762 223.745,113.035 229.279,106.601C232.882,102.097 236.935,95.728 241.439,87.492C248.13,74.881 251.862,59.633 252.634,41.746L281.781,41.553C281.523,47.729 280.687,54.421 279.271,61.627C278.499,65.359 277.277,69.67 275.604,74.56L387.17,74.366L387.17,86.913L342.582,86.913L342.583,86.932L313.63,86.932Z" style="fill:rgb(0,79,138);fill-rule:nonzero;"/>
            </g>
            <g transform="matrix(1,0,0,1,2.40347,138.389)">
                <path d="M144.201,196.742L52.664,196.742C36.965,196.742 29.115,189.601 29.115,175.317L29.115,77.648C29.115,64.651 35.678,58.153 48.803,58.153L159.405,58.153C173.045,58.153 179.865,64.651 179.865,77.648L179.865,176.089C179.865,189.858 172.595,196.742 158.054,196.742L151.701,196.742L151.701,169.859L151.684,169.859L151.684,77.648C151.684,72.758 149.046,70.313 143.77,70.313L64.052,70.313C59.162,70.313 56.717,72.372 56.717,76.49L56.717,176.282C56.717,181.172 59.484,183.617 65.017,183.617L143.577,183.617C143.789,183.617 143.997,183.614 144.201,183.607L144.201,196.742Z" style="fill:rgb(0,79,138);fill-rule:nonzero;"/>
            </g>
        </g>
    </g>
</svg>
