<?xml version="1.0" encoding="UTF-8" standalone="no"?>
<!DOCTYPE svg PUBLIC "-//W3C//DTD SVG 1.1//EN" "http://www.w3.org/Graphics/SVG/1.1/DTD/svg11.dtd">
<svg width="100%" height="100%" viewBox="0 0 800 600" version="1.1" xmlns="http://www.w3.org/2000/svg" xmlns:xlink="http://www.w3.org/1999/xlink" xml:space="preserve" xmlns:serif="http://www.serif.com/" style="fill-rule:evenodd;clip-rule:evenodd;stroke-linejoin:round;stroke-miterlimit:2;">
    <g transform="matrix(1,0,0,1,7.75653,0)">
        <g>
            <g transform="matrix(275.624,0,0,275.624,51.8168,372.556)">
                <path d="M0.306,-0L0.008,-0.516L0.145,-0.516L0.354,-0.143L0.553,-0.516L0.673,-0.516L0.389,-0L0.306,-0Z" style="fill:rgb(0,79,138);fill-rule:nonzero;"/>
            </g>
            <g transform="matrix(1,0,0,1,-13.9938,142.765)">
                <path d="M405.108,186.01L458.655,229.791L411.148,229.791L364.404,186.01L405.108,186.01ZM332.331,176.093L322.458,176.093L322.458,229.791L289.89,229.791L289.89,87.538L411.552,87.538C422.857,87.538 431.044,89.714 436.113,94.065C441.182,98.417 443.717,105.438 443.717,115.127L443.717,148.504C443.717,158.104 441.182,165.102 436.113,169.499C431.613,173.401 424.658,175.571 415.246,176.01L332.331,176.01L332.331,176.093ZM396.882,112.167L322.458,112.167L322.458,151.734L396.882,151.734C402.624,151.734 406.55,150.904 408.658,149.244C410.767,147.584 411.821,144.646 411.821,140.429L411.821,123.337C411.821,119.21 410.767,116.316 408.658,114.656C406.55,112.997 402.624,112.167 396.882,112.167Z" style="fill:rgb(0,79,138);fill-rule:nonzero;"/>
            </g>
            <g transform="matrix(1,0,0,1,-13.9938,142.765)">
                <path d="M633.467,116.871L660.125,182.957L694.578,87.538L724.186,87.538L669.276,229.791L646.936,229.791L610.77,138.941C616.968,132.023 623.67,125.475 630.677,119.297C631.602,118.482 632.532,117.673 633.467,116.871ZM547.746,148.769C539.838,160.815 533.51,174.027 529.293,188.503L490.417,87.538L524.601,87.538L547.746,148.769Z" style="fill:rgb(0,79,138);fill-rule:nonzero;"/>
            </g>
            <g transform="matrix(1,0,0,1,-13.9938,142.765)">
                <path d="M528.433,229.791C529.134,83.924 732,43.711 760.024,38.451C733.713,50.071 566.853,113.496 567.313,229.791" style="fill:rgb(168,171,174);"/>
            </g>
            <g transform="matrix(1,0,0,1,61.7634,418.784)">
                <text x="0px" y="0px" style="font-family:'BankGothicBT-Medium', 'BankGothic Md BT', sans-serif;font-stretch:semi-expanded;font-size:50px;fill:rgb(0,79,138);">V</text>
            </g>
            <g transform="matrix(50,0,0,50,94.0384,418.784)">
                <rect x="0.094" y="-0.423" width="0.103" height="0.423" style="fill:rgb(0,79,138);fill-rule:nonzero;"/>
            </g>
            <g transform="matrix(50,0,0,50,108.589,418.784)">
                <path d="M0.431,-0.35L0.196,-0.35L0.196,-0.233L0.431,-0.233C0.449,-0.233 0.461,-0.236 0.468,-0.241C0.475,-0.246 0.478,-0.255 0.478,-0.267L0.478,-0.316C0.478,-0.328 0.475,-0.337 0.468,-0.342C0.461,-0.347 0.449,-0.35 0.431,-0.35ZM0.094,-0L0.094,-0.423L0.475,-0.423C0.51,-0.423 0.535,-0.416 0.551,-0.404C0.566,-0.391 0.574,-0.37 0.574,-0.341L0.574,-0.241C0.574,-0.213 0.566,-0.192 0.551,-0.179C0.535,-0.167 0.51,-0.16 0.475,-0.16L0.417,-0.16L0.618,-0L0.47,-0L0.293,-0.16L0.196,-0.16L0.196,-0L0.094,-0Z" style="fill:rgb(0,79,138);fill-rule:nonzero;"/>
            </g>
            <g transform="matrix(50,0,0,50,139.302,418.784)">
                <path d="M0.346,-0.347L0.346,-0L0.243,-0L0.243,-0.347L0.039,-0.347L0.039,-0.423L0.551,-0.423L0.551,-0.347L0.346,-0.347Z" style="fill:rgb(0,79,138);fill-rule:nonzero;"/>
            </g>
            <g transform="matrix(50,0,0,50,168.794,418.784)">
                <path d="M0.197,-0.423L0.197,-0.079L0.491,-0.079L0.491,-0.423L0.595,-0.423L0.595,-0.1C0.595,-0.062 0.587,-0.035 0.572,-0.021C0.557,-0.007 0.527,-0 0.484,-0L0.204,-0C0.161,-0 0.132,-0.007 0.117,-0.021C0.102,-0.035 0.094,-0.061 0.094,-0.1L0.094,-0.423L0.197,-0.423Z" style="fill:rgb(0,79,138);fill-rule:nonzero;"/>
            </g>
            <g transform="matrix(50,0,0,50,202.364,418.784)">
                <path d="M0.03,-0L0.281,-0.423L0.38,-0.423L0.635,-0L0.519,-0L0.466,-0.093L0.186,-0.093L0.133,-0L0.03,-0ZM0.23,-0.17L0.424,-0.17L0.325,-0.346L0.23,-0.17Z" style="fill:rgb(0,79,138);fill-rule:nonzero;"/>
            </g>
            <g transform="matrix(50,0,0,50,234.663,418.784)">
                <path d="M0.094,-0L0.094,-0.423L0.198,-0.423L0.198,-0.079L0.53,-0.079L0.53,-0L0.094,-0Z" style="fill:rgb(0,79,138);fill-rule:nonzero;"/>
            </g>
            <g transform="matrix(50,0,0,50,262.251,418.784)">
                <path d="M0.52,-0.427L0.25,-0.427L0.25,-0.283L0.52,-0.283C0.541,-0.283 0.555,-0.286 0.563,-0.292C0.57,-0.298 0.574,-0.309 0.574,-0.324L0.574,-0.386C0.574,-0.401 0.57,-0.412 0.563,-0.418C0.555,-0.424 0.541,-0.427 0.52,-0.427ZM0.132,-0L0.132,-0.516L0.573,-0.516C0.614,-0.516 0.644,-0.508 0.662,-0.492C0.681,-0.477 0.69,-0.451 0.69,-0.416L0.69,-0.295C0.69,-0.26 0.681,-0.235 0.662,-0.219C0.644,-0.203 0.614,-0.195 0.573,-0.195L0.506,-0.195L0.744,-0L0.572,-0L0.364,-0.195L0.25,-0.195L0.25,-0L0.132,-0Z" style="fill:rgb(0,79,138);fill-rule:nonzero;"/>
            </g>
            <g transform="matrix(50,0,0,50,301.46,418.784)">
                <path d="M0.187,-0.081L0.528,-0.081L0.528,-0.345L0.187,-0.345L0.187,-0.081ZM0.084,-0.323C0.084,-0.362 0.091,-0.388 0.106,-0.402C0.121,-0.416 0.151,-0.423 0.194,-0.423L0.521,-0.423C0.565,-0.423 0.594,-0.416 0.609,-0.402C0.623,-0.388 0.631,-0.362 0.631,-0.323L0.631,-0.1C0.631,-0.061 0.623,-0.035 0.608,-0.021C0.593,-0.007 0.564,-0 0.521,-0L0.194,-0C0.151,-0 0.121,-0.007 0.106,-0.021C0.091,-0.035 0.084,-0.061 0.084,-0.1L0.084,-0.323Z" style="fill:rgb(0,79,138);fill-rule:nonzero;"/>
            </g>
            <g transform="matrix(50,0,0,50,337.202,418.784)">
                <path d="M0.465,-0.345L0.187,-0.345L0.187,-0.081L0.465,-0.081L0.465,-0.171L0.569,-0.15L0.569,-0.1C0.569,-0.062 0.561,-0.035 0.546,-0.021C0.531,-0.007 0.501,-0 0.458,-0L0.194,-0C0.151,-0 0.122,-0.007 0.107,-0.021C0.092,-0.035 0.084,-0.061 0.084,-0.1L0.084,-0.323C0.084,-0.362 0.092,-0.388 0.107,-0.402C0.122,-0.416 0.151,-0.423 0.194,-0.423L0.458,-0.423C0.502,-0.423 0.531,-0.416 0.546,-0.402C0.561,-0.388 0.569,-0.362 0.569,-0.323L0.569,-0.282L0.465,-0.267L0.465,-0.345Z" style="fill:rgb(0,79,138);fill-rule:nonzero;"/>
            </g>
            <g transform="matrix(50,0,0,50,369.405,418.784)">
                <path d="M0.094,-0L0.094,-0.423L0.198,-0.423L0.198,-0.252L0.445,-0.423L0.594,-0.423L0.302,-0.227L0.627,-0L0.464,-0L0.198,-0.191L0.198,-0L0.094,-0Z" style="fill:rgb(0,79,138);fill-rule:nonzero;"/>
            </g>
            <g transform="matrix(50,0,0,50,400.41,418.784)">
                <path d="M0.094,-0L0.094,-0.423L0.548,-0.423L0.548,-0.348L0.198,-0.348L0.198,-0.256L0.402,-0.256L0.402,-0.183L0.198,-0.183L0.198,-0.079L0.553,-0.079L0.553,-0L0.094,-0Z" style="fill:rgb(0,79,138);fill-rule:nonzero;"/>
            </g>
            <g transform="matrix(50,0,0,50,430.806,418.784)">
                <path d="M0.346,-0.347L0.346,-0L0.243,-0L0.243,-0.347L0.039,-0.347L0.039,-0.423L0.551,-0.423L0.551,-0.347L0.346,-0.347Z" style="fill:rgb(0,79,138);fill-rule:nonzero;"/>
            </g>
            <g transform="matrix(50,0,0,50,460.298,418.784)">
                <path d="M0.238,-0L0.039,-0.516L0.163,-0.516L0.294,-0.17L0.431,-0.516L0.515,-0.516L0.655,-0.17L0.78,-0.516L0.887,-0.516L0.688,-0L0.607,-0L0.465,-0.357L0.321,-0L0.238,-0Z" style="fill:rgb(0,79,138);fill-rule:nonzero;"/>
            </g>
            <g transform="matrix(50,0,0,50,503.852,418.784)">
                <path d="M0.03,-0L0.281,-0.423L0.38,-0.423L0.635,-0L0.519,-0L0.466,-0.093L0.186,-0.093L0.133,-0L0.03,-0ZM0.23,-0.17L0.424,-0.17L0.325,-0.346L0.23,-0.17Z" style="fill:rgb(0,79,138);fill-rule:nonzero;"/>
            </g>
            <g transform="matrix(50,0,0,50,533.418,418.784)">
                <path d="M0.346,-0.347L0.346,-0L0.243,-0L0.243,-0.347L0.039,-0.347L0.039,-0.423L0.551,-0.423L0.551,-0.347L0.346,-0.347Z" style="fill:rgb(0,79,138);fill-rule:nonzero;"/>
            </g>
            <g transform="matrix(50,0,0,50,561.128,418.784)">
                <path d="M0.465,-0.345L0.187,-0.345L0.187,-0.081L0.465,-0.081L0.465,-0.171L0.569,-0.15L0.569,-0.1C0.569,-0.062 0.561,-0.035 0.546,-0.021C0.531,-0.007 0.501,-0 0.458,-0L0.194,-0C0.151,-0 0.122,-0.007 0.107,-0.021C0.092,-0.035 0.084,-0.061 0.084,-0.1L0.084,-0.323C0.084,-0.362 0.092,-0.388 0.107,-0.402C0.122,-0.416 0.151,-0.423 0.194,-0.423L0.458,-0.423C0.502,-0.423 0.531,-0.416 0.546,-0.402C0.561,-0.388 0.569,-0.362 0.569,-0.323L0.569,-0.282L0.465,-0.267L0.465,-0.345Z" style="fill:rgb(0,79,138);fill-rule:nonzero;"/>
            </g>
            <g transform="matrix(50,0,0,50,593.33,418.784)">
                <path d="M0.094,-0L0.094,-0.423L0.198,-0.423L0.198,-0.262L0.52,-0.262L0.52,-0.423L0.623,-0.423L0.623,-0L0.52,-0L0.52,-0.178L0.198,-0.178L0.198,-0L0.094,-0Z" style="fill:rgb(0,79,138);fill-rule:nonzero;"/>
            </g>
            <g transform="matrix(50,0,0,50,629.219,418.784)">
                <rect x="0.094" y="-0.423" width="0.103" height="0.423" style="fill:rgb(0,79,138);fill-rule:nonzero;"/>
            </g>
            <g transform="matrix(50,0,0,50,643.769,418.784)">
                <path d="M0.094,-0L0.094,-0.423L0.165,-0.423L0.524,-0.142L0.524,-0.423L0.617,-0.423L0.617,-0L0.546,-0L0.188,-0.285L0.188,-0L0.094,-0Z" style="fill:rgb(0,79,138);fill-rule:nonzero;"/>
            </g>
            <g transform="matrix(50,0,0,50,679.365,418.784)">
                <path d="M0.509,-0.345L0.187,-0.345L0.187,-0.081L0.509,-0.081L0.509,-0.171L0.341,-0.171L0.341,-0.246L0.61,-0.246L0.61,-0.1C0.61,-0.061 0.602,-0.035 0.587,-0.021C0.572,-0.007 0.543,-0 0.5,-0L0.194,-0C0.151,-0 0.122,-0.007 0.107,-0.021C0.092,-0.035 0.084,-0.061 0.084,-0.1L0.084,-0.323C0.084,-0.362 0.092,-0.388 0.107,-0.402C0.122,-0.416 0.151,-0.423 0.194,-0.423L0.5,-0.423C0.543,-0.423 0.572,-0.416 0.587,-0.402C0.602,-0.389 0.61,-0.364 0.61,-0.328L0.61,-0.317L0.509,-0.3L0.509,-0.345Z" style="fill:rgb(0,79,138);fill-rule:nonzero;"/>
            </g>
        </g>
    </g>
</svg>
